<svg width="32" height="32" viewBox="0 0 32 32" fill="none" xmlns="http://www.w3.org/2000/svg">
<path d="M17.3754 23.5V18.3795C17.3754 15.7289 17.9368 13.5602 19.0597 11.8735C20.1825 10.1466 21.8292 9.02209 24 8.5V11.2108C22.8023 11.5321 21.9228 12.1345 21.3614 13.0181C20.8 13.8614 20.4444 14.9458 20.2947 16.2711H22.8772V23.5H17.3754ZM8 23.5V18.3795C8 15.7289 8.54269 13.5602 9.62807 11.8735C10.7509 10.1466 12.3977 9.02209 14.5684 8.5V11.2108C13.4082 11.5321 12.5287 12.1345 11.9298 13.0181C11.3684 13.8614 11.0316 14.9458 10.9193 16.2711H13.4456V23.5H8Z" fill="white"/>
</svg>
