<svg width="122" height="33" viewBox="0 0 122 33" fill="none" xmlns="http://www.w3.org/2000/svg">
<path d="M0.304 25V1.16H10.352C11.9307 1.16 13.2747 1.43733 14.384 1.992C15.5147 2.52533 16.3787 3.29333 16.976 4.296C17.5947 5.27733 17.904 6.472 17.904 7.88C17.904 8.968 17.6053 9.992 17.008 10.952C16.432 11.8907 15.504 12.6693 14.224 13.288V11.272C15.3973 11.72 16.3253 12.2747 17.008 12.936C17.6907 13.5973 18.1707 14.3333 18.448 15.144C18.7253 15.9547 18.864 16.808 18.864 17.704C18.864 19.9867 18.1067 21.7787 16.592 23.08C15.0987 24.36 13.0187 25 10.352 25H0.304ZM4.656 21.16H10.8C11.9307 21.16 12.8267 20.8507 13.488 20.232C14.1707 19.592 14.512 18.7493 14.512 17.704C14.512 16.6587 14.1707 15.816 13.488 15.176C12.8267 14.536 11.9307 14.216 10.8 14.216H4.656V21.16ZM4.656 10.408H10.576C11.472 10.408 12.1867 10.152 12.72 9.64C13.2533 9.10667 13.52 8.424 13.52 7.592C13.52 6.76 13.2533 6.09867 12.72 5.608C12.1867 5.11733 11.472 4.872 10.576 4.872H4.656V10.408ZM28.285 25.384C26.941 25.384 25.7677 25.0853 24.765 24.488C23.7837 23.8907 23.0263 23.0587 22.493 21.992C21.981 20.9253 21.725 19.6773 21.725 18.248V7.592H25.917V17.896C25.917 18.6213 26.0557 19.2613 26.333 19.816C26.6317 20.3493 27.0477 20.776 27.581 21.096C28.1357 21.3947 28.7543 21.544 29.437 21.544C30.1197 21.544 30.7277 21.3947 31.261 21.096C31.7943 20.776 32.2103 20.3387 32.509 19.784C32.8077 19.2293 32.957 18.568 32.957 17.8V7.592H37.149V25H33.181V21.576L33.533 22.184C33.1277 23.2507 32.4557 24.0507 31.517 24.584C30.5997 25.1173 29.5223 25.384 28.285 25.384ZM43.1578 32.072C42.6884 32.072 42.2298 32.0293 41.7818 31.944C41.3338 31.88 40.9284 31.7627 40.5658 31.592V28.072C40.8431 28.136 41.1738 28.2 41.5578 28.264C41.9631 28.328 42.3364 28.36 42.6778 28.36C43.6378 28.36 44.3311 28.136 44.7578 27.688C45.2058 27.24 45.6004 26.6533 45.9418 25.928L47.0938 23.24L47.0298 26.76L39.4458 7.592H43.9578L49.2698 21.736H47.6698L52.9498 7.592H57.4938L49.9098 26.76C49.4618 27.8907 48.9178 28.8507 48.2778 29.64C47.6377 30.4293 46.8911 31.0267 46.0378 31.432C45.2058 31.8587 44.2458 32.072 43.1578 32.072ZM71.3478 25.384C69.6411 25.384 68.0624 25.0747 66.6118 24.456C65.1824 23.8373 63.9238 22.9733 62.8358 21.864C61.7691 20.7547 60.9371 19.4533 60.3398 17.96C59.7424 16.4667 59.4438 14.8347 59.4438 13.064C59.4438 11.2933 59.7318 9.66133 60.3078 8.168C60.9051 6.65333 61.7371 5.352 62.8038 4.264C63.8918 3.15467 65.1611 2.30133 66.6118 1.704C68.0624 1.08533 69.6411 0.775999 71.3478 0.775999C73.0544 0.775999 74.5798 1.064 75.9237 1.64C77.2891 2.216 78.4411 2.984 79.3798 3.944C80.3184 4.88267 80.9904 5.91733 81.3958 7.048L77.4918 8.872C77.0438 7.67733 76.2864 6.696 75.2198 5.928C74.1531 5.13867 72.8624 4.744 71.3478 4.744C69.8544 4.744 68.5318 5.096 67.3798 5.8C66.2491 6.504 65.3638 7.47467 64.7238 8.712C64.1051 9.94933 63.7958 11.4 63.7958 13.064C63.7958 14.728 64.1051 16.1893 64.7238 17.448C65.3638 18.6853 66.2491 19.656 67.3798 20.36C68.5318 21.064 69.8544 21.416 71.3478 21.416C72.8624 21.416 74.1531 21.032 75.2198 20.264C76.2864 19.4747 77.0438 18.4827 77.4918 17.288L81.3958 19.112C80.9904 20.2427 80.3184 21.288 79.3798 22.248C78.4411 23.1867 77.2891 23.944 75.9237 24.52C74.5798 25.096 73.0544 25.384 71.3478 25.384ZM89.5445 25.384C88.3285 25.384 87.2725 25.1813 86.3765 24.776C85.4805 24.3707 84.7872 23.7947 84.2965 23.048C83.8058 22.28 83.5605 21.3947 83.5605 20.392C83.5605 19.432 83.7738 18.5787 84.2005 17.832C84.6272 17.064 85.2885 16.424 86.1845 15.912C87.0805 15.4 88.2112 15.0373 89.5765 14.824L95.2725 13.896V17.096L90.3765 17.928C89.5445 18.0773 88.9258 18.344 88.5205 18.728C88.1152 19.112 87.9125 19.6133 87.9125 20.232C87.9125 20.8293 88.1365 21.3093 88.5845 21.672C89.0538 22.0133 89.6298 22.184 90.3125 22.184C91.1872 22.184 91.9552 22.0027 92.6165 21.64C93.2992 21.256 93.8218 20.7333 94.1845 20.072C94.5685 19.4107 94.7605 18.6853 94.7605 17.896V13.416C94.7605 12.6693 94.4618 12.0507 93.8645 11.56C93.2885 11.048 92.5205 10.792 91.5605 10.792C90.6645 10.792 89.8645 11.0373 89.1605 11.528C88.4778 11.9973 87.9765 12.6267 87.6565 13.416L84.2325 11.752C84.5738 10.8347 85.1072 10.0453 85.8325 9.384C86.5792 8.70133 87.4538 8.168 88.4565 7.784C89.4592 7.4 90.5472 7.208 91.7205 7.208C93.1498 7.208 94.4085 7.47467 95.4965 8.008C96.5845 8.52 97.4272 9.24533 98.0245 10.184C98.6432 11.1013 98.9525 12.1787 98.9525 13.416V25H94.9845V22.024L95.8805 21.96C95.4325 22.7067 94.8992 23.336 94.2805 23.848C93.6618 24.3387 92.9578 24.7227 92.1685 25C91.3792 25.256 90.5045 25.384 89.5445 25.384ZM102.827 25V7.592H106.763V11.464L106.443 10.888C106.848 9.58667 107.478 8.68 108.331 8.168C109.206 7.656 110.251 7.4 111.467 7.4H112.491V11.112H110.987C109.792 11.112 108.832 11.4853 108.107 12.232C107.382 12.9573 107.019 13.9813 107.019 15.304V25H102.827Z" fill="white"/>
<path d="M116.78 25V20.52H121.004V25H116.78Z" fill="#DF2935"/>
</svg>
