<svg width="32" height="30" viewBox="0 0 32 30" fill="none" xmlns="http://www.w3.org/2000/svg">
<path d="M18.7509 30V19.759C18.7509 14.4578 19.8737 10.1205 22.1193 6.74699C24.3649 3.29317 27.6585 1.04418 32 0V5.42169C29.6047 6.06426 27.8456 7.26907 26.7228 9.03614C25.6 10.7229 24.8889 12.8916 24.5895 15.5422H29.7544V30H18.7509ZM0 30V19.759C0 14.4578 1.08538 10.1205 3.25614 6.74699C5.50175 3.29317 8.79532 1.04418 13.1368 0V5.42169C10.8164 6.06426 9.05731 7.26907 7.85965 9.03614C6.73684 10.7229 6.06316 12.8916 5.8386 15.5422H10.8912V30H0Z" fill="#DF2935"/>
</svg>
